<?xml version="1.0" encoding="utf-8"?>
<!-- Generator: Adobe Illustrator 27.0.0, SVG Export Plug-In . SVG Version: 6.00 Build 0)  -->
<svg version="1.1" xmlns="http://www.w3.org/2000/svg" xmlns:xlink="http://www.w3.org/1999/xlink" x="0px" y="0px"
	 viewBox="0 0 811.44 276" style="enable-background:new 0 0 811.44 276;" xml:space="preserve">
	<style type="text/css">
	.st0{fill:#FFFFFF;}
	.st1{fill:#E1061E;}
	.st2{fill:#1A1A18;}
	.st3{fill:#041E42;}
	.st4{fill:#E10600;}
</style>
<g id="Artwork">
	<g>
		<path class="st0" d="M315.4,196c0,1.2-0.2,2.4-0.5,3.4s-0.8,1.9-1.5,2.6c-0.7,0.7-1.5,1.3-2.6,1.6s-2.3,0.6-3.7,0.6h-2.5
			c-1.4,0-2.7-0.2-3.7-0.6c-1-0.4-1.9-0.9-2.6-1.6c-0.7-0.7-1.2-1.6-1.5-2.6s-0.5-2.1-0.5-3.4v-3c0-1.2,0.2-2.4,0.5-3.4
			c0.3-1,0.8-1.9,1.5-2.6s1.5-1.3,2.6-1.6c1-0.4,2.3-0.6,3.7-0.6h2.5c1.4,0,2.7,0.2,3.7,0.6c1,0.4,1.9,0.9,2.6,1.6
			c0.7,0.7,1.2,1.6,1.5,2.6c0.3,1,0.5,2.1,0.5,3.4V196z M299.5,196.7c0,1.7,0.4,2.9,1.1,3.8s2,1.2,3.6,1.2h3.2
			c1.7,0,2.9-0.4,3.7-1.2c0.7-0.8,1.1-2.1,1.1-3.8v-4.4c0-1.7-0.4-2.9-1.1-3.8c-0.7-0.8-2-1.2-3.7-1.2h-3.2c-1.7,0-2.9,0.4-3.6,1.2
			c-0.7,0.8-1.1,2.1-1.1,3.8V196.7z"/>
		<path class="st0" d="M319.6,203.9v-12.6h-2.4v-2.4h2.4v-0.2c0-1.4,0.4-2.4,1.1-3.1s1.8-1,3.2-1h4v2.2h-4c-0.6,0-1,0.1-1.3,0.4
			s-0.4,0.7-0.4,1.3v0.4h5.9v2.4h-5.8v12.6L319.6,203.9L319.6,203.9z"/>
		<path class="st0" d="M329.2,203.9v-12.6h-2.4v-2.4h2.4c0-1.5,0.4-2.6,1.2-3.2c0.8-0.7,1.9-1,3.4-1h3.8v2.2h-4
			c-0.6,0-1,0.1-1.3,0.4s-0.4,0.7-0.4,1.3v0.4h5.7v2.4H332v12.6L329.2,203.9L329.2,203.9z"/>
		<path class="st0" d="M343,186.8h-2.8v-2.7h2.8V186.8z M340.3,203.9v-15h2.8v15H340.3z"/>
		<path class="st0" d="M353.5,191.2c-1.3,0-2.3,0.2-2.8,0.8s-0.9,1.4-0.9,2.8v3.2c0,1.4,0.3,2.3,0.9,2.8c0.6,0.5,1.5,0.8,2.8,0.8
			h6.5v2.4h-6.6c-1.9,0-3.5-0.5-4.7-1.6c-1.2-1.1-1.8-2.6-1.8-4.7v-2.4c0-2.1,0.6-3.6,1.8-4.7s2.8-1.6,4.7-1.6h6.6v2.4L353.5,191.2
			L353.5,191.2z"/>
		<path class="st0" d="M366.3,186.8h-2.8v-2.7h2.8V186.8z M363.6,203.9v-15h2.8v15H363.6z"/>
		<path class="st0" d="M383.7,194.3v9.6h-9.2c-1.4,0-2.5-0.3-3.4-0.9c-0.8-0.6-1.2-1.5-1.2-2.7c0-0.8,0.3-1.5,0.9-2.2
			c0.6-0.6,1.4-1.3,2.5-2.1l6.3-4.8H370v-2.4h8c1.9,0,3.3,0.5,4.3,1.5S383.7,192.6,383.7,194.3z M374.3,201.4h6.6v-8.2l-6.7,5.1
			c-0.5,0.4-0.8,0.6-1.1,0.9c-0.3,0.2-0.4,0.6-0.4,1c0,0.4,0.2,0.7,0.5,0.9C373.5,201.3,373.9,201.4,374.3,201.4z"/>
		<path class="st0" d="M387.9,185.1h2.8v18.8h-2.8V185.1z"/>
		<path class="st0" d="M410.4,196.2l-4.8-1.3c-1.6-0.4-2.9-1.1-3.8-1.8s-1.3-1.8-1.3-3.2s0.5-2.5,1.6-3.4s2.7-1.3,4.8-1.3h8.8v2.5
			h-9.1c-1.2,0-2,0.2-2.5,0.6c-0.5,0.4-0.7,0.9-0.7,1.5c0,0.6,0.2,1.2,0.6,1.5c0.4,0.4,1.2,0.7,2.3,1l4.8,1.4
			c1.6,0.5,2.9,1.1,3.8,1.9c0.9,0.8,1.3,1.9,1.3,3.2c0,1.6-0.5,2.8-1.6,3.7s-2.6,1.4-4.8,1.4h-9v-2.5h9.2c1.1,0,1.9-0.2,2.4-0.6
			s0.8-1,0.8-1.8c0-0.8-0.2-1.4-0.6-1.7C412.4,196.8,411.6,196.5,410.4,196.2z"/>
		<path class="st0" d="M433.3,188.9v15h-8.5c-1.9,0-3.3-0.5-4.1-1.4c-0.9-0.9-1.3-2.2-1.3-4v-9.6h2.8v9.9c0,1,0.2,1.7,0.6,2
			c0.4,0.4,1,0.6,1.9,0.6h5.9v-12.5H433.3z"/>
		<path class="st0" d="M437.6,207.6v-18.8h8.4c2,0,3.5,0.6,4.6,1.7c1.1,1.1,1.6,2.7,1.6,4.8v2.1c0,2.1-0.5,3.7-1.6,4.8
			c-1.1,1.1-2.6,1.7-4.6,1.7h-5.6v3.8L437.6,207.6L437.6,207.6z M445.7,191.4h-5.4v10h5.4c1.3,0,2.2-0.3,2.8-0.8s0.8-1.5,0.8-2.8
			V195c0-1.3-0.3-2.3-0.8-2.8C447.9,191.6,447,191.4,445.7,191.4z"/>
		<path class="st0" d="M456,207.6v-18.8h8.4c2,0,3.5,0.6,4.6,1.7c1.1,1.1,1.6,2.7,1.6,4.8v2.1c0,2.1-0.5,3.7-1.6,4.8
			c-1.1,1.1-2.6,1.7-4.6,1.7h-5.6v3.8L456,207.6L456,207.6z M464.1,191.4h-5.4v10h5.4c1.3,0,2.2-0.3,2.8-0.8s0.8-1.5,0.8-2.8V195
			c0-1.3-0.3-2.3-0.8-2.8C466.4,191.6,465.4,191.4,464.1,191.4z"/>
		<path class="st0" d="M474.4,185.1h2.8v18.8h-2.8V185.1z"/>
		<path class="st0" d="M484.4,186.8h-2.8v-2.7h2.8V186.8z M481.7,203.9v-15h2.8v15H481.7z"/>
		<path class="st0" d="M503,197.3h-11.8v1.2c0,1,0.3,1.7,0.9,2.2c0.6,0.5,1.6,0.7,2.9,0.7h7.5v2.4h-7.1c-1,0-2-0.1-2.9-0.3
			s-1.6-0.6-2.2-1.1s-1.1-1.1-1.5-1.9s-0.5-1.6-0.5-2.7v-2.6c0-2.2,0.6-3.9,1.7-5s2.8-1.7,5-1.7h1.4c2.2,0,3.8,0.5,4.9,1.5
			c1.1,1,1.6,2.5,1.6,4.4L503,197.3L503,197.3z M496.8,191h-2.1c-1.3,0-2.2,0.3-2.7,0.9c-0.5,0.6-0.8,1.6-0.8,3.1v0.1h8.9v-0.9
			c0-1.1-0.2-1.9-0.7-2.4S498.1,191,496.8,191z"/>
		<path class="st0" d="M506.4,193.5c0-1.5,0.5-2.7,1.4-3.4s2.2-1.2,3.6-1.2h4.3v2.4h-4.5c-0.8,0-1.4,0.1-1.7,0.4
			c-0.3,0.3-0.5,0.8-0.5,1.6v10.6h-2.8L506.4,193.5L506.4,193.5z"/>
	</g>
	<path class="st1" d="M761.4,168v34c0,13.2-10.8,24-24,24H48v2h689.4c14.3,0,26-11.7,26-26v-34H761.4z"/>
</g>
<g id="Calque_1_00000039840162327412920800000014775586858415903150_">
	<g>
		<rect x="456" y="48" class="st0" width="307.3" height="96"/>
		<g>
			<path class="st2" d="M735.8,90.2V79.7h2.1c4.2,0,5.7,2.2,5.7,5.2s-1.6,5.2-5.7,5.2H735.8z M733.8,96.5h2v-4.6h2.2
				c5.1,0,7.7-2.9,7.7-7c0-4.2-2.6-7-7.7-7h-4.2L733.8,96.5L733.8,96.5z M719.4,96.7c3.8,0,6.7-2.2,6.7-6.6V77.9h-2V90
				c0,3.3-1.8,4.9-4.7,4.9c-2.9,0-4.7-1.6-4.7-4.9V77.9h-2v12.2C712.8,94.5,715.6,96.7,719.4,96.7 M696.6,95c-4.3,0-7.5-3.3-7.5-7.7
				s3.2-7.7,7.5-7.7c4.3,0,7.5,3.3,7.5,7.7S701,95,696.6,95 M696.6,96.7c5.3,0,9.6-3.9,9.6-9.5s-4.3-9.5-9.6-9.5
				c-5.3,0-9.5,3.9-9.5,9.5S691.3,96.7,696.6,96.7 M671.1,89.9V79.7h2.1c4.2,0,5.8,2.2,5.8,5.1c0,2.9-1.6,5.1-5.8,5.1
				C673.2,89.9,671.1,89.9,671.1,89.9z M677.1,90.8c2.6-1,3.9-3.2,3.9-6c0-4-2.6-6.9-7.7-6.9h-4.2v18.6h2v-4.9h2.2
				c0.7,0,1.3-0.1,2-0.2l3.6,5.1h2.3L677.1,90.8z M654.7,96.7c3.5,0,6-1.2,7.4-2.6v-6.5h-7.4v1.8h5.5v3.8c-1.2,0.9-3,1.7-5.5,1.7
				c-4.5,0-7.7-3.3-7.7-7.7s3.2-7.7,7.5-7.7c2.3,0,3.9,0.7,5.1,2l1.3-1.3c-1.5-1.6-3.8-2.4-6.5-2.4c-5.4,0-9.6,3.9-9.6,9.5
				S649.2,96.7,654.7,96.7"/>
			<path class="st3" d="M611.8,96.5h3.7v-7c0-1.3-0.1-3.2-0.1-3.2s1.1,1.6,2,2.6l3.7,4.1h0.4l3.7-4.1c0.9-1,2-2.6,2-2.6
				s-0.1,2-0.1,3.2v7h3.7V77.7h-0.3l-9,10.1l-9.2-10.1h-0.3L611.8,96.5L611.8,96.5z M597.8,96.8c4.2,0,7.5-2.3,7.5-7V77.9h-3.8v11.7
				c0,2.7-1.2,3.8-3.7,3.8c-2.5,0-3.7-1-3.7-3.8V77.9h-3.8v11.9C590.2,94.5,593.5,96.8,597.8,96.8 M579.8,96.5h3.8V77.9h-3.8V96.5z
				 M572.7,96.7h0.4V77.9h-3.6v7.8c0,1.3,0.2,3.4,0.2,3.4s-1.3-1.7-2.2-2.5l-9.4-8.8h-0.4v18.8h3.6v-7.8c0-1.3-0.3-3.4-0.3-3.4
				s1.3,1.7,2.2,2.5L572.7,96.7z M547.3,96.5h3.8V77.9h-3.8V96.5z M532.5,96.5h3.8V81.3h5.3v-3.4h-14.4v3.4h5.3L532.5,96.5
				L532.5,96.5z M514.5,91.2l1.3-3.2c0.5-1.3,1.1-3.3,1.1-3.3s0.6,2,1.1,3.3l1.3,3.2H514.5z M508.6,96.5h3.7l0.9-2.1h7.5l0.9,2.1h4
				l-8.5-18.8h-0.3L508.6,96.5z M491.9,96.5h12.2v-3.4h-8.4V77.9h-3.8V96.5z M476.6,88.9v-7.6h1.2c3.1,0,4.5,1.3,4.5,3.8
				c0,2.5-1.4,3.8-4.5,3.8C477.8,88.9,476.6,88.9,476.6,88.9z M472.7,96.5h3.8v-4.2h1.3c5.2,0,8.3-2.7,8.3-7.2s-3.1-7.2-8.3-7.2
				h-5.1L472.7,96.5L472.7,96.5z"/>
			<path class="st2" d="M705.4,115.6h0.6v-3.1l3.7-6.8h-0.6l-3.1,5.7c-0.1,0.2-0.3,0.6-0.3,0.6s-0.1-0.4-0.2-0.6l-3.2-5.7h-0.7
				l3.7,6.8L705.4,115.6L705.4,115.6z M696.4,115.7c1.9,0,3.2-0.7,4-1.5v-3.1h-3.8v0.5h3.2v2.3c-0.7,0.6-1.7,1.2-3.4,1.2
				c-2.6,0-4.5-1.9-4.5-4.5s1.9-4.5,4.5-4.5c1.2,0,2.3,0.4,3,1.1l0.4-0.4c-0.8-0.8-2-1.2-3.4-1.2c-2.8,0-5.1,2.1-5.1,5.1
				S693.6,115.7,696.4,115.7 M684.3,115.2c-2.5,0-4.5-1.9-4.5-4.5s1.9-4.5,4.5-4.5c2.5,0,4.5,1.9,4.5,4.5
				C688.7,113.2,686.8,115.2,684.3,115.2 M684.3,115.7c2.8,0,5.1-2.1,5.1-5.1s-2.3-5.1-5.1-5.1s-5.1,2.1-5.1,5.1
				S681.5,115.7,684.3,115.7 M672.8,115.6h5.3v-0.5h-4.8v-9.4h-0.6V115.6z M665.2,115.2c-2.5,0-4.5-1.9-4.5-4.5s1.9-4.5,4.5-4.5
				c2.5,0,4.5,1.9,4.5,4.5C669.6,113.2,667.7,115.2,665.2,115.2 M665.2,115.7c2.8,0,5.1-2.1,5.1-5.1s-2.3-5.1-5.1-5.1
				s-5.1,2.1-5.1,5.1S662.4,115.7,665.2,115.7 M657.3,115.7h0.2v-10h-0.5v8c0,0.3,0,0.7,0,0.7s-0.3-0.4-0.5-0.7l-6.3-8.2H650v10h0.5
				v-8c0-0.3,0-0.7,0-0.7s0.3,0.4,0.5,0.7L657.3,115.7z M639.8,115.6h0.6v-3.5h5.8v3.5h0.6v-9.9h-0.6v5.8h-5.8v-5.8h-0.6V115.6z
				 M633.3,115.7c1.7,0,3.2-0.7,4-2l-0.5-0.3c-0.8,1.1-2.1,1.8-3.6,1.8c-2.5,0-4.5-1.9-4.5-4.5s1.9-4.5,4.5-4.5
				c1.6,0,2.8,0.6,3.5,1.7l0.5-0.3c-0.8-1.2-2.2-1.9-3.9-1.9c-2.8,0-5.1,2.1-5.1,5.1S630.5,115.7,633.3,115.7 M620.3,115.6h6v-0.5
				h-5.4v-3h4.6v-0.5h-4.6v-5.3h5.2v-0.5h-5.8L620.3,115.6L620.3,115.6z M614.3,115.6h0.6v-9.4h3.1v-0.5h-6.9v0.5h3.1V115.6z
				 M602.2,115.7c1.9,0,3.2-0.7,4-1.5v-3.1h-3.8v0.5h3.2v2.3c-0.7,0.6-1.7,1.2-3.4,1.2c-2.6,0-4.5-1.9-4.5-4.5s1.9-4.5,4.5-4.5
				c1.2,0,2.3,0.4,3,1.1l0.4-0.4c-0.8-0.8-2-1.2-3.4-1.2c-2.8,0-5.1,2.1-5.1,5.1S599.4,115.7,602.2,115.7 M594.4,115.7h0.2v-10H594
				v8c0,0.3,0,0.7,0,0.7s-0.3-0.4-0.5-0.7l-6.3-8.2h-0.2v10h0.5v-8c0-0.3,0-0.7,0-0.7s0.3,0.4,0.5,0.7L594.4,115.7z M583.2,115.6
				h0.6v-9.9h-0.6V115.6z M577.1,115.6h0.6v-9.4h3.1v-0.5H574v0.5h3.1L577.1,115.6L577.1,115.6z M566.4,115.6h6v-0.5h-5.4v-3h4.6
				v-0.5h-4.6v-5.3h5.2v-0.5h-5.8L566.4,115.6L566.4,115.6z M558.1,112.1c0-0.2,0.1-0.7,0.1-1.1v-5.3h-0.6v9.9h0.6v-3l1.3-1.6
				l3.8,4.6h0.7l-4.2-5l3.8-4.9H563l-4.3,5.4C558.6,111.3,558.3,111.7,558.1,112.1 M551,115.7c1.7,0,3.2-0.7,4-2l-0.5-0.3
				c-0.8,1.1-2.1,1.8-3.6,1.8c-2.5,0-4.5-1.9-4.5-4.5s1.9-4.5,4.5-4.5c1.6,0,2.8,0.6,3.5,1.7l0.5-0.3c-0.8-1.2-2.2-1.9-3.9-1.9
				c-2.8,0-5.1,2.1-5.1,5.1S548.2,115.7,551,115.7 M542.7,115.6h0.6v-9.9h-0.6V115.6z M536.6,115.6h0.6v-9.4h3.1v-0.5h-6.9v0.5h3.1
				L536.6,115.6L536.6,115.6z M523.6,115.6h5.3v-0.5h-4.8v-9.4h-0.6V115.6z M514.5,113.1l2.2-5.6c0.2-0.3,0.3-0.9,0.3-0.9
				s0.2,0.6,0.3,0.9l2.2,5.6H514.5z M513,115.6h0.6l0.8-1.9h5.5l0.8,1.9h0.6l-4-10H517L513,115.6z M505.3,115.1v-4.6h2.9
				c1.8,0,2.5,1,2.5,2.3c0,1.3-0.7,2.3-2.5,2.3C508.2,115.1,505.3,115.1,505.3,115.1z M505.3,109.9v-3.7h2.5c1.6,0,2.1,0.8,2.1,1.8
				c0,1.1-0.5,1.8-1.9,1.8L505.3,109.9L505.3,109.9z M504.7,115.6h3.6c2.1,0,3-1.2,3-2.8c0-1.3-0.8-2.3-2-2.6c0.8-0.3,1.2-1.1,1.2-2
				c0-1.3-0.8-2.4-2.6-2.4h-3.1V115.6z M497,115.2c-2.5,0-4.5-1.9-4.5-4.5s1.9-4.5,4.5-4.5s4.5,1.9,4.5,4.5
				C501.5,113.2,499.6,115.2,497,115.2 M497,115.7c2.8,0,5.1-2.1,5.1-5.1s-2.3-5.1-5.1-5.1s-5.1,2.1-5.1,5.1S494.2,115.7,497,115.7
				 M485.6,115.6h5.4v-0.5h-4.8v-9.4h-0.6V115.6z M478.9,115.7c1.9,0,3.1-0.7,4-1.5v-3.1h-3.8v0.5h3.2v2.3c-0.6,0.6-1.7,1.2-3.4,1.2
				c-2.6,0-4.5-1.9-4.5-4.5s1.9-4.5,4.5-4.5c1.2,0,2.3,0.4,3,1.1l0.4-0.4c-0.8-0.8-2-1.2-3.4-1.2c-2.8,0-5.1,2.1-5.1,5.1
				S476.1,115.7,478.9,115.7"/>
		</g>
	</g>
</g>
<g>
	<g>
		<g>
			<path class="st4" d="M391.7,144c-4.3,0-7.9-1.4-10.8-4.3c-2.9-2.9-4.3-6.5-4.3-10.7c0-4.2,1.4-7.8,4.3-10.7
				c2.8-2.9,6.4-4.3,10.8-4.3c4.3,0,7.9,1.4,10.7,4.3c2.8,2.9,4.2,6.5,4.2,10.7s-1.4,7.8-4.2,10.7C399.6,142.6,396,144,391.7,144z
				 M391.6,116.4c-3.5,0-6.5,1.2-8.9,3.7c-2.4,2.5-3.6,5.4-3.6,8.9c0,3.5,1.2,6.5,3.6,8.9c2.4,2.5,5.4,3.7,8.9,3.7s6.5-1.2,8.9-3.7
				c2.4-2.4,3.6-5.4,3.6-8.9c0-3.5-1.2-6.5-3.6-9C398.1,117.6,395.1,116.4,391.6,116.4z M388.7,131.5v5.9h-3.3v-16.6h6.3
				c2.2,0,3.8,0.4,4.9,1.2c1.1,0.8,1.6,2,1.6,3.6c0,1.6-0.2,2.8-0.7,3.6c-0.4,0.8-1.2,1.4-2.2,1.9l3.1,6.3h-3.5l-2.8-5.9H388.7z
				 M388.6,123.3v5.6h3.4c1,0,1.8-0.2,2.2-0.7c0.5-0.4,0.7-1.2,0.7-2.1c0-1.9-1.2-2.8-3.5-2.8H388.6z"/>
		</g>
	</g>
	<path class="st4" d="M49.4,144l67.1-67.1C140.9,52.6,154,48,199.8,48h164.4l-33.4,32.7H207c-33.8,0-42.5,2.7-59.1,19.2L103.5,144
		H49.4z M210.3,89.8c-33.8,0-40.3,1.5-55.5,16.7L117.6,144h50.1l11.9-12.1c7-7.3,10-9.1,26.7-9.1h82l33.4-33H210.3z M376,48l-96,96
		h56.9l96.4-96H376z"/>
</g>
</svg>
