<?xml version="1.0" standalone="no"?>
<!DOCTYPE svg PUBLIC "-//W3C//DTD SVG 20010904//EN"
 "http://www.w3.org/TR/2001/REC-SVG-20010904/DTD/svg10.dtd">
<svg version="1.0" xmlns="http://www.w3.org/2000/svg"
 width="398.000000pt" height="272.000000pt" viewBox="0 0 398.000000 272.000000"
 preserveAspectRatio="xMidYMid meet">

<g transform="translate(0.000000,272.000000) scale(0.100000,-0.100000)"
fill="#000000" stroke="none">
<path d="M1235 2714 c-582 -63 -1049 -463 -1190 -1020 -83 -323 -46 -646 106
-944 189 -371 522 -625 940 -716 65 -15 126 -19 269 -19 160 0 198 3 285 24
113 27 217 62 289 98 l48 24 82 -34 c385 -165 797 -156 1160 24 357 178 609
493 712 894 35 136 44 382 20 535 -72 453 -382 847 -810 1030 -337 144 -716
142 -1062 -4 l-101 -43 -44 23 c-73 37 -214 83 -322 105 -99 20 -298 32 -382
23z m105 -79 c0 -2 -43 -46 -96 -97 -110 -106 -210 -231 -279 -348 l-48 -80
-142 0 -142 0 -89 56 c-126 79 -123 71 -61 131 162 159 422 289 657 328 74 13
200 19 200 10z m227 -10 c174 -28 344 -94 493 -192 78 -52 220 -170 220 -184
0 -14 -111 -88 -204 -135 l-91 -46 -52 35 c-30 20 -76 40 -108 47 -54 11 -55
12 -108 93 -71 109 -190 249 -271 321 -36 32 -66 62 -66 67 0 13 83 11 187 -6z
m973 -35 l0 -50 80 0 80 0 0 51 0 52 63 -7 c34 -4 74 -10 88 -13 l27 -5 -13
-49 -13 -49 56 -16 c32 -8 65 -18 74 -20 14 -4 20 5 29 40 7 27 17 46 25 46
20 0 143 -50 150 -61 3 -5 -4 -24 -15 -43 -12 -18 -21 -38 -21 -43 0 -9 109
-73 123 -73 3 0 16 17 28 38 12 20 24 39 25 41 3 4 116 -82 132 -101 9 -12 5
-21 -23 -48 l-35 -34 52 -53 52 -53 36 35 36 35 26 -27 c14 -16 40 -48 57 -72
l31 -44 -40 -24 c-22 -13 -40 -28 -40 -33 0 -8 52 -101 67 -119 2 -3 20 4 41
14 20 11 41 19 45 20 9 0 67 -129 67 -150 0 -7 -20 -18 -45 -25 -34 -10 -44
-17 -41 -29 3 -9 12 -42 21 -74 14 -47 20 -57 33 -52 10 4 31 9 48 12 31 5 32
4 38 -43 4 -27 9 -66 12 -86 l6 -38 -51 0 -51 0 0 -80 0 -80 51 0 c50 0 51 0
45 -27 -3 -16 -8 -53 -12 -83 -3 -30 -8 -58 -10 -62 -3 -4 -25 -1 -49 7 l-45
13 -10 -42 c-6 -22 -15 -54 -21 -70 -11 -34 -3 -42 49 -52 17 -3 32 -11 32
-16 0 -14 -61 -158 -67 -158 -3 0 -23 10 -44 22 -21 12 -40 20 -42 17 -2 -2
-19 -31 -37 -63 -36 -65 -36 -65 26 -102 18 -10 18 -12 0 -40 -11 -16 -35 -48
-54 -72 l-35 -43 -34 33 -33 32 -55 -54 -55 -54 33 -34 32 -34 -30 -24 c-16
-13 -48 -37 -71 -53 l-41 -30 -22 39 c-12 22 -25 40 -27 40 -14 0 -124 -66
-124 -75 0 -5 9 -25 21 -44 11 -18 19 -35 17 -37 -7 -6 -147 -64 -156 -64 -5
0 -15 20 -21 44 l-11 45 -72 -20 c-40 -11 -74 -21 -75 -22 -1 -1 4 -21 10 -44
6 -23 9 -44 6 -47 -2 -3 -41 -9 -86 -13 l-82 -9 -3 45 -3 46 -77 3 -78 3 0
-49 0 -48 -82 9 c-46 5 -85 11 -87 13 -2 2 0 24 6 49 6 25 9 45 6 45 -2 0 -35
9 -73 19 l-70 20 -11 -45 c-13 -52 -17 -52 -110 -11 l-52 23 84 61 c46 34 110
87 142 118 l59 56 76 -18 c113 -25 291 -23 407 6 105 27 227 81 313 140 l61
41 196 0 196 0 -6 23 c-4 12 -30 94 -57 181 l-50 160 21 60 c88 254 73 514
-44 751 -115 234 -344 424 -595 495 -108 31 -317 38 -429 16 l-82 -17 -74 69
c-41 38 -106 91 -145 117 -39 27 -67 52 -62 57 14 14 132 57 136 50 2 -4 9
-26 16 -50 8 -33 15 -42 28 -38 9 2 43 12 74 20 l57 16 -14 47 c-8 26 -13 48
-11 50 4 5 109 21 144 22 32 1 32 1 32 -49z m-1200 -340 l0 -320 -25 0 c-25 0
-25 1 -25 90 l0 90 -160 0 c-88 0 -160 4 -160 8 0 30 157 239 253 338 60 63
111 114 113 114 2 0 4 -144 4 -320z m152 212 c93 -101 228 -280 228 -304 0 -4
-20 -17 -45 -29 -55 -26 -109 -87 -128 -143 -15 -46 -31 -53 -114 -55 l-53 -1
0 316 0 315 29 -20 c15 -11 53 -47 83 -79z m1366 -221 c173 -50 353 -170 462
-307 67 -85 149 -245 177 -344 25 -94 25 -357 -1 -458 -10 -40 -21 -74 -26
-77 -4 -2 -81 230 -171 515 l-164 520 -276 0 -275 0 -15 -47 -15 -47 -31 55
c-17 31 -54 86 -82 123 -37 48 -47 68 -37 72 78 30 343 27 454 -5z m-2381 -81
l75 -50 -111 0 -111 0 0 -365 0 -365 -125 0 -125 0 0 53 c0 191 89 457 213
642 45 67 98 135 105 135 2 0 38 -22 79 -50z m1876 8 c47 -58 128 -184 151
-235 18 -41 18 -41 -7 -120 -14 -43 -51 -158 -82 -255 l-56 -178 -169 0 -169
0 -3 103 c-3 97 -4 102 -25 105 -24 3 -28 12 -38 80 -6 38 -4 47 18 70 57 59
77 175 45 252 l-15 35 86 47 c47 26 115 67 151 92 36 24 68 45 72 45 4 1 22
-18 41 -41z m-791 -383 c54 -103 190 -159 298 -121 24 8 46 13 48 11 2 -2 6
-22 9 -44 l6 -41 -184 -2 -184 -3 -3 -102 -3 -103 -84 0 -85 0 0 255 0 254 73
3 72 3 11 -40 c6 -22 18 -54 26 -70z m-222 -150 l0 -255 -50 0 -50 0 0 80 0
80 -185 0 -185 0 0 55 0 55 210 0 210 0 0 120 0 120 25 0 25 0 0 -255z m1568
-247 c23 -112 42 -210 42 -219 0 -13 -13 -16 -73 -18 -126 -3 -121 -20 -69
227 25 116 48 212 51 212 3 0 25 -91 49 -202z m-2578 -418 l0 -370 121 0 121
0 -62 -48 c-34 -26 -68 -51 -76 -57 -10 -7 -21 -1 -44 25 -55 63 -159 225
-194 301 -66 144 -116 344 -116 465 l0 54 125 0 125 0 0 -370z m1010 126 l0
-243 -95 -7 c-80 -5 -279 -47 -337 -71 -29 -12 -38 34 -38 196 l0 149 185 0
185 0 0 110 0 110 50 0 50 0 0 -244z m210 -7 l0 -252 -46 7 c-26 3 -64 6 -85
6 l-39 0 0 245 0 245 85 0 85 0 0 -251z m790 241 c0 -17 -212 -684 -219 -693
-4 -4 -29 4 -54 19 l-47 26 0 329 0 329 160 0 c104 0 160 -4 160 -10z m-1000
-851 l0 -331 -42 36 c-67 57 -184 193 -245 285 -54 81 -142 238 -143 253 0 10
149 54 225 67 93 16 107 18 158 20 l47 1 0 -331z m149 325 l61 -7 0 -98 0 -99
95 0 c52 0 95 -2 95 -5 0 -9 -93 -151 -139 -210 -55 -72 -178 -203 -203 -216
-17 -9 -18 5 -18 316 l0 325 24 0 c12 0 51 -3 85 -6z m1554 -21 c3 -10 13 -53
22 -95 15 -74 18 -78 43 -78 26 -1 27 -1 7 -16 -46 -36 -206 -105 -286 -124
-100 -23 -268 -28 -371 -10 -38 7 -68 14 -68 17 0 3 21 34 47 69 l47 64 77 0
76 0 12 58 c6 31 16 74 22 95 l10 37 179 0 c162 0 179 -2 183 -17z m-1983
-395 c43 -57 123 -147 179 -201 55 -54 101 -101 101 -104 0 -7 -130 5 -225 23
-213 37 -448 153 -610 299 l-50 45 40 36 c22 20 66 54 97 75 l57 39 110 0 111
0 0 53 1 52 55 -107 c31 -58 91 -153 134 -210z m1022 210 c29 -18 83 -54 121
-82 l67 -50 -22 -24 c-44 -47 -165 -138 -245 -185 -98 -58 -222 -109 -329
-136 -85 -21 -281 -47 -291 -38 -3 3 41 52 99 109 111 110 187 206 263 331
l46 77 115 0 c95 0 114 3 114 15 0 20 2 20 62 -17z m301 0 c-51 -67 -78 -98
-84 -98 -6 0 -126 86 -148 106 -2 2 51 4 119 4 96 0 120 -3 113 -12z"/>
</g>
</svg>
